<svg xmlns="http://www.w3.org/2000/svg" viewBox="0 0 28.83 34.45"><defs><style>.cls-1{isolation:isolate;}.cls-10,.cls-11,.cls-12,.cls-13,.cls-14,.cls-15,.cls-16,.cls-17,.cls-18,.cls-2,.cls-3,.cls-4,.cls-5,.cls-6,.cls-7,.cls-8,.cls-9{fill:#fff;}.cls-10,.cls-11,.cls-12,.cls-13,.cls-14,.cls-15,.cls-16,.cls-17,.cls-2,.cls-3,.cls-4,.cls-5,.cls-6,.cls-7,.cls-8,.cls-9{mix-blend-mode:screen;}.cls-2{opacity:0.93;}.cls-3{opacity:0.32;}.cls-4{opacity:0.74;}.cls-5{opacity:0.54;}.cls-6{opacity:0.35;}.cls-7{opacity:0.37;}.cls-8{opacity:0.38;}.cls-9{opacity:0.59;}.cls-10{opacity:0.65;}.cls-11{opacity:0.38;}.cls-12{opacity:1;}.cls-13{opacity:0.66;}.cls-14{opacity:0.68;}.cls-15{opacity:0.5;}.cls-16{opacity:0.7;}.cls-17{opacity:0.86;}</style></defs><g class="cls-1"><g id="Layer_2" data-name="Layer 2"><g id="Layer_1-2" data-name="Layer 1"><polygon class="cls-2" points="15.26 14.77 17.59 30.38 17.01 30.46 14.69 14.85 15.26 14.77"/><path class="cls-3" d="M14.88,15l-.64.15-.74.17c-.28.07-.61.09-1,.15a9.78,9.78,0,0,1-1.16.13c-.41,0-.84.08-1.29.06s-.92,0-1.39,0a13.87,13.87,0,0,1-1.43-.15,13,13,0,0,1-1.41-.26A13.3,13.3,0,0,1,4.5,14.9,17.34,17.34,0,0,1,2.19,14,12.88,12.88,0,0,1,.06,12.89a.14.14,0,0,1,0-.2.14.14,0,0,1,.2,0h0L.77,13a15.7,15.7,0,0,0,1.53.79,17.42,17.42,0,0,0,2.27.88c.43.12.87.26,1.33.35s.92.2,1.39.28.94.11,1.41.16.93,0,1.38.06.87,0,1.28,0a9.91,9.91,0,0,0,1.15-.12c.35,0,.68-.07,1-.14l.74-.16.64-.14a.06.06,0,0,1,.08,0A.07.07,0,0,1,14.88,15Z"/><path class="cls-4" d="M3.44,7.32s.63.58,1.64,1.39c.25.21.53.41.83.64l.92.71c.67.45,1.35,1,2.08,1.44l1.08.71c.35.24.71.44,1.06.64l1,.59c.31.19.62.36.91.5l1.92,1h0a.07.07,0,0,1,0,.09.06.06,0,0,1-.08,0l-1.94-1c-.29-.14-.6-.3-.92-.49L11,13c-.35-.21-.72-.4-1.08-.64l-1.09-.69c-.74-.45-1.43-1-2.1-1.43l-.94-.7c-.29-.22-.58-.43-.83-.64-1-.8-1.67-1.38-1.67-1.38a.14.14,0,0,1,0-.2.15.15,0,0,1,.21,0Z"/><path class="cls-5" d="M7.94,5.9s.28.66.8,1.6c.12.24.28.49.43.76s.32.55.51.83l.59.85a8.72,8.72,0,0,0,.63.87l.67.84a8.72,8.72,0,0,0,.69.78l.67.71.31.32.31.28,1.36,1.19h0a.06.06,0,1,1-.08.1l-1.38-1.18-.32-.27-.32-.33-.68-.7c-.23-.25-.49-.49-.71-.78l-.68-.83a8.94,8.94,0,0,1-.65-.87l-.61-.85c-.19-.28-.35-.57-.52-.83s-.33-.52-.45-.76c-.27-.47-.48-.87-.62-1.16A4.69,4.69,0,0,1,7.68,6h0a.15.15,0,0,1,.08-.19A.14.14,0,0,1,7.94,5.9Z"/><path class="cls-6" d="M10.72,5.14s0,.17.09.46.15.69.28,1.18.31,1,.48,1.66c.11.3.22.61.34.92s.22.63.36.93l.42.92c.07.15.14.3.2.45l.24.42A17,17,0,0,0,14,13.57l1,1.37h0A.07.07,0,0,1,15,15a.07.07,0,0,1-.09,0l-1-1.37c-.31-.41-.57-.95-.9-1.49l-.24-.42c-.07-.15-.14-.3-.22-.45-.14-.31-.28-.62-.43-.92s-.25-.63-.38-.94-.24-.62-.35-.92c-.19-.61-.4-1.17-.52-1.67s-.24-.91-.3-1.2a4.35,4.35,0,0,1-.09-.46h0A.14.14,0,0,1,10.56,5a.14.14,0,0,1,.16.12Z"/><path class="cls-7" d="M14.8,15v-.45c0-.15,0-.32,0-.52s0-.42-.06-.67c-.09-1-.27-2.27-.48-3.57-.41-2.59-.91-5.16-.91-5.16a.15.15,0,0,1,.12-.17.14.14,0,0,1,.17.11h0s.46,2.59.83,5.19c.19,1.3.35,2.61.43,3.6,0,.24.05.47,0,.67s0,.37,0,.52,0,.45,0,.45a.06.06,0,0,1-.06.06A.07.07,0,0,1,14.8,15Z"/><path class="cls-8" d="M16.22.13a51.49,51.49,0,0,1,.42,7.57c0,.47,0,.94-.08,1.41s-.07.92-.14,1.37l-.09.65c0,.21-.09.41-.13.61s-.08.4-.12.58-.11.37-.17.54-.09.33-.15.49l-.19.42a3.46,3.46,0,0,1-.34.67l-.37.55a.08.08,0,0,1-.09,0,.07.07,0,0,1,0-.09h0l.35-.54a2.89,2.89,0,0,0,.33-.66l.18-.41c.06-.16.1-.32.15-.49s.1-.34.15-.53.08-.37.12-.57l.12-.61.08-.65c.07-.43.1-.89.13-1.35s0-.94.06-1.41c0-.94,0-1.89-.05-2.77s-.1-1.71-.17-2.41C16.08,1.1,15.94.17,15.94.17A.14.14,0,0,1,16.06,0a.14.14,0,0,1,.16.12Z"/><path class="cls-9" d="M21.14,3.05s-.18.84-.57,2.06c-.19.61-.44,1.32-.73,2.06s-.63,1.53-1,2.3c-.2.37-.38.76-.59,1.12s-.41.73-.63,1.07-.42.66-.64,1-.41.58-.63.82l-.55.68-.47.48-.41.42a.06.06,0,0,1-.09,0s0-.07,0-.09h0l.4-.42c.13-.14.29-.29.46-.49l.55-.67c.2-.24.38-.54.6-.83s.41-.62.63-1,.4-.69.61-1.06.38-.75.57-1.12c.37-.77.7-1.55,1-2.29s.51-1.45.7-2.06c.37-1.22.54-2,.54-2A.15.15,0,0,1,21,2.87a.16.16,0,0,1,.11.18Z"/><path class="cls-10" d="M24.68,5.56s-.48.71-1.27,1.73a39.91,39.91,0,0,1-3.1,3.56c-.6.61-1.23,1.2-1.84,1.72-.31.26-.61.51-.9.73l-.84.62-.74.47c-.22.15-.43.24-.59.34l-.52.28a0,0,0,0,1,0,0s0,0,0,0l.52-.29c.16-.09.36-.19.58-.34l.72-.48.83-.63c.29-.22.57-.48.88-.74.6-.53,1.22-1.12,1.81-1.74a44.43,44.43,0,0,0,3-3.59c.77-1,1.23-1.74,1.23-1.74a.14.14,0,1,1,.24.16Z"/><path class="cls-11" d="M25.26,8.72l-.38.38c-.24.24-.6.55-1,.93-.21.2-.47.37-.72.58s-.53.43-.83.63l-.91.63a10.34,10.34,0,0,1-1,.6l-1,.58c-.32.2-.66.34-1,.5l-.93.46a7.41,7.41,0,0,1-.86.35L14.89,15a.08.08,0,0,1-.09,0,.07.07,0,0,1,0-.08h0l1.77-.7a8.15,8.15,0,0,0,.84-.36l.92-.46c.31-.17.65-.31,1-.51s.64-.4,1-.59.65-.39.95-.62l.89-.63c.3-.2.55-.44.81-.64s.5-.38.71-.58c.42-.38.77-.7,1-.93A4.41,4.41,0,0,0,25,8.52a.15.15,0,0,1,.21,0,.14.14,0,0,1,0,.2Z"/><path class="cls-12" d="M14.81,14.88H15l.5,0a13.48,13.48,0,0,0,1.77-.36c.36-.09.75-.22,1.16-.34s.84-.28,1.27-.46.88-.36,1.32-.57.89-.44,1.34-.66.87-.49,1.28-.75.83-.52,1.2-.8.75-.53,1.07-.81.66-.52.92-.78l.75-.7L28.11,8l.46-.5h0a.15.15,0,0,1,.21,0,.14.14,0,0,1,0,.2h0l-.48.5-.55.58L27,9.5c-.27.27-.61.51-.94.78s-.71.54-1.09.81-.8.53-1.22.8-.87.5-1.31.74-.89.47-1.35.66-.9.39-1.34.55-.87.31-1.28.45-.8.25-1.17.34a13.06,13.06,0,0,1-1.79.34A4.12,4.12,0,0,1,15,15h-.18a.06.06,0,0,1-.06-.06A.07.07,0,0,1,14.81,14.88Z"/><path class="cls-13" d="M14.86,15.12,13.09,15l-.85-.07-1-.19-1-.2a7.38,7.38,0,0,1-1-.29l-1-.33c-.33-.12-.64-.29-.94-.43A6.93,6.93,0,0,1,6.46,13l-.73-.45c-.22-.15-.4-.32-.57-.45a3.5,3.5,0,0,1-.43-.37,4.1,4.1,0,0,1-.34-.36.06.06,0,0,1,.1-.08,2.82,2.82,0,0,0,.34.34,2.28,2.28,0,0,0,.42.36c.17.13.35.29.57.43l.73.44a6.11,6.11,0,0,0,.85.42c.3.13.6.29.93.41l1,.31a5.92,5.92,0,0,0,1,.27l1,.19.93.17.85.05,1.77.12A.15.15,0,0,1,15,15a.13.13,0,0,1-.15.13Z"/><path class="cls-14" d="M2.89,16.18a14.39,14.39,0,0,0,1.87.29c.57.06,1.24.09,2,.1A19.13,19.13,0,0,0,9,16.45c.38,0,.76-.09,1.13-.14s.73-.14,1.08-.21.69-.17,1-.24.61-.18.88-.27a11.75,11.75,0,0,0,1.3-.47l.49-.2h0a.06.06,0,0,1,.07,0,0,0,0,0,1,0,.07l-.49.2a13,13,0,0,1-1.3.5c-.28.09-.57.2-.89.28s-.65.19-1,.26-.71.16-1.09.22-.75.12-1.14.16a21.93,21.93,0,0,1-2.26.14c-.72,0-1.39,0-2-.07a14.65,14.65,0,0,1-1.91-.28.14.14,0,0,1-.11-.16.13.13,0,0,1,.16-.1Z"/><path class="cls-15" d="M5.54,17.9s.63,0,1.57,0c.48,0,1-.07,1.62-.14a18,18,0,0,0,1.82-.33,9.41,9.41,0,0,0,.91-.25,5.71,5.71,0,0,0,.85-.31,6.08,6.08,0,0,0,.77-.37,4.89,4.89,0,0,0,.63-.41,3.43,3.43,0,0,0,.48-.42,1.72,1.72,0,0,0,.32-.37l.25-.35h0a.05.05,0,0,1,.08,0s0,0,0,.08l-.25.36a1.77,1.77,0,0,1-.32.39,5.57,5.57,0,0,1-.49.45,5.64,5.64,0,0,1-.65.43c-.24.12-.49.28-.77.39s-.56.24-.87.33a8.7,8.7,0,0,1-.91.26A18.62,18.62,0,0,1,8.76,18c-.6.08-1.15.13-1.63.16-1,.07-1.6.06-1.6.06A.14.14,0,0,1,5.4,18a.13.13,0,0,1,.13-.13Z"/><path class="cls-16" d="M26.75,11.8a17.59,17.59,0,0,1-1.68,1c-.52.29-1.13.61-1.81.91a19,19,0,0,1-2.16.83c-.38.11-.76.23-1.14.31s-.75.18-1.12.22a10.22,10.22,0,0,1-1.07.11c-.34,0-.66,0-.95,0l-.81,0-.62-.1L14.85,15s0,0,0-.06a.06.06,0,0,1,.06-.05h0l.53.08c.17,0,.37.07.61.08l.8,0c.29,0,.61,0,.94,0a10,10,0,0,0,1-.13c.37,0,.73-.15,1.11-.23s.74-.21,1.12-.32a18.53,18.53,0,0,0,2.13-.85c.67-.3,1.27-.63,1.78-.92a17.4,17.4,0,0,0,1.64-1.06.14.14,0,0,1,.19,0,.13.13,0,0,1,0,.19Z"/><path class="cls-17" d="M24.47,14.65a22.46,22.46,0,0,1-4.84,1.26c-.31,0-.62.08-.93.09a6.79,6.79,0,0,1-.9,0,5.73,5.73,0,0,1-.85-.07,3.83,3.83,0,0,1-.74-.17,2.88,2.88,0,0,1-.61-.23l-.24-.12a1.41,1.41,0,0,1-.18-.14L14.83,15a.05.05,0,0,1,0-.08.06.06,0,0,1,.09,0h0l.34.25.17.13.24.11a3.32,3.32,0,0,0,.59.22,3.83,3.83,0,0,0,.72.14,4.44,4.44,0,0,0,.83.06,6.65,6.65,0,0,0,.89,0c.3,0,.61-.06.92-.1a19.49,19.49,0,0,0,3.3-.8c.89-.28,1.46-.52,1.46-.52a.13.13,0,0,1,.17.08.13.13,0,0,1-.07.17Z"/><path class="cls-18" d="M17,27.38c.65,0,1.29,1.5,1.42,3.46s-.29,3.56-.95,3.61S16.17,33,16,31,16.33,27.43,17,27.38Z"/></g></g></g></svg>