<svg xmlns="http://www.w3.org/2000/svg" viewBox="0 0 24.31 22.18"><defs><style>.cls-1{fill:#fecb37;stroke:#b98410;stroke-miterlimit:10;stroke-width:0.25px;}.cls-2{fill:#136db5;}.cls-3{fill:#104877;}.cls-4{fill:#b98410;}</style></defs><g id="Layer_2" data-name="Layer 2"><g id="Layer_1-2" data-name="Layer 1"><path class="cls-1" d="M.13,2.12H21.76a2.43,2.43,0,0,1,2.43,2.43V19.62a2.43,2.43,0,0,1-2.43,2.43H2.56A2.43,2.43,0,0,1,.13,19.62V2.12A0,0,0,0,1,.13,2.12Z"/><path class="cls-2" d="M5.69,15h13a1.52,1.52,0,0,1,1.52,1.52v5.46a0,0,0,0,1,0,0H4.16a0,0,0,0,1,0,0V16.48A1.52,1.52,0,0,1,5.69,15Z"/><rect class="cls-3" x="9.1" y="17.9" width="6.37" height="1.52" rx="0.76"/><path class="cls-4" d="M.95,0H8.5A2.49,2.49,0,0,1,11,2.49v0A2.49,2.49,0,0,1,8.5,5H0A0,0,0,0,1,0,5v-4A.95.95,0,0,1,.95,0Z"/></g></g></svg>